<svg xmlns="http://www.w3.org/2000/svg" width="432" height="567" viewBox="0 0 432 567" role="img"><title>卡诺图分组与化简结果</title><desc>每种颜色表示一个卡诺组。同色分段框表示跨边界相邻，格子中的编号表示参与的组。</desc><rect width="100%" height="100%" fill="#fff"/><g font-family="Segoe UI,Microsoft YaHei,sans-serif">
<text x="32" y="42" font-size="26" fill="#172b49" >卡诺图 · 分组与化简</text>
<text x="32" y="78" font-size="24" fill="#245cd8" >F = A&apos;·B + A·B&apos;</text>
<text x="100" y="112" font-size="16" fill="#64748b" text-anchor="end">A \ B</text>
<text x="176" y="112" font-size="18" fill="#64748b" text-anchor="middle">0</text>
<text x="312" y="112" font-size="18" fill="#64748b" text-anchor="middle">1</text>
<text x="88" y="186" font-size="18" fill="#64748b" text-anchor="end">0</text>
<rect x="112" y="130" width="128" height="100" rx="8" fill="#fafcff" stroke="#dce5f1"/>
<text x="125" y="153" font-size="13" fill="#64748b" >m0</text>
<text x="176" y="190" font-size="30" fill="#172b49" text-anchor="middle">0</text>
<rect x="248" y="130" width="128" height="100" rx="8" fill="#f0f5ff" stroke="#dce5f1"/>
<text x="261" y="153" font-size="13" fill="#64748b" >m1</text>
<text x="312" y="190" font-size="30" fill="#172b49" text-anchor="middle">1</text>
<text x="312" y="214" font-size="15" fill="#245cd8" text-anchor="middle" font-weight="700">1</text>
<text x="88" y="294" font-size="18" fill="#64748b" text-anchor="end">1</text>
<rect x="112" y="238" width="128" height="100" rx="8" fill="#f0f5ff" stroke="#dce5f1"/>
<text x="125" y="261" font-size="13" fill="#64748b" >m2</text>
<text x="176" y="298" font-size="30" fill="#172b49" text-anchor="middle">1</text>
<text x="176" y="322" font-size="15" fill="#ab5919" text-anchor="middle" font-weight="700">2</text>
<rect x="248" y="238" width="128" height="100" rx="8" fill="#fafcff" stroke="#dce5f1"/>
<text x="261" y="261" font-size="13" fill="#64748b" >m3</text>
<text x="312" y="298" font-size="30" fill="#172b49" text-anchor="middle">0</text>
<rect x="251" y="133" width="122" height="94" rx="15" fill="none" stroke="#245cd8" stroke-width="2.7" />
<text x="32" y="394" font-size="17" fill="#245cd8" >1  m(1) → A&apos;·B</text>
<rect x="118" y="244" width="116" height="88" rx="15" fill="none" stroke="#ab5919" stroke-width="2.7" />
<text x="32" y="428" font-size="17" fill="#ab5919" >2  m(2) → A·B&apos;</text>
<text x="32" y="510" font-size="14" fill="#64748b" >同色虚线框：跨边界同一组；数字：组号。</text>
<text x="32" y="538" font-size="14" fill="#64748b" >最少项数 → 最少文字数 · 真值验证通过</text>
</g></svg>